<svg width="102" height="105" viewBox="0 0 102 105" fill="#1697f6" xmlns="http://www.w3.org/2000/svg">
<path d="M54 105H39.6094L13.6875 60.75V105H0.234375V37.7812H14.625L40.5469 82.0781V37.7812H54V105Z" fill="#FF5722"/>
<path d="M101.043 53H98.7227L94.9961 47.832C94.082 48.6523 93.1094 49.4258 92.0781 50.1523C91.0703 50.8555 90.0039 51.4766 88.8789 52.0156C87.7539 52.5312 86.5938 52.9414 85.3984 53.2461C84.2266 53.5508 83.0312 53.7031 81.8125 53.7031C79.1641 53.7031 76.668 53.2109 74.3242 52.2266C72.0039 51.2188 69.9648 49.8359 68.207 48.0781C66.4727 46.2969 65.1016 44.1992 64.0938 41.7852C63.0859 39.3477 62.582 36.6992 62.582 33.8398C62.582 31.0039 63.0859 28.3672 64.0938 25.9297C65.1016 23.4922 66.4727 21.3828 68.207 19.6016C69.9648 17.8203 72.0039 16.4258 74.3242 15.418C76.668 14.4102 79.1641 13.9062 81.8125 13.9062C82.6562 13.9062 83.5234 13.9766 84.4141 14.1172C85.3281 14.2578 86.207 14.4922 87.0508 14.8203C87.918 15.125 88.7266 15.5352 89.4766 16.0508C90.2266 16.5664 90.8594 17.1992 91.375 17.9492V0.371094H101.043V53ZM91.375 33.8398C91.375 32.5273 91.1172 31.2617 90.6016 30.043C90.1094 28.8008 89.4297 27.7109 88.5625 26.7734C87.6953 25.8125 86.6758 25.0508 85.5039 24.4883C84.3555 23.9023 83.125 23.6094 81.8125 23.6094C80.5 23.6094 79.2578 23.8438 78.0859 24.3125C76.9375 24.7812 75.9297 25.4609 75.0625 26.3516C74.2188 27.2188 73.5508 28.2852 73.0586 29.5508C72.5664 30.8164 72.3203 32.2461 72.3203 33.8398C72.3203 35.2227 72.5664 36.5352 73.0586 37.7773C73.5508 39.0195 74.2188 40.1094 75.0625 41.0469C75.9297 41.9844 76.9375 42.7227 78.0859 43.2617C79.2578 43.8008 80.5 44.0703 81.8125 44.0703C83.125 44.0703 84.3555 43.7891 85.5039 43.2266C86.6758 42.6406 87.6953 41.8789 88.5625 40.9414C89.4297 39.9805 90.1094 38.8906 90.6016 37.6719C91.1172 36.4297 91.375 35.1523 91.375 33.8398Z" fill="#FF5722"/>
</svg>
